<svg width="160" height="45" viewBox="0 0 160 45" fill="none" xmlns="http://www.w3.org/2000/svg">
<path d="M24.7579 13H8V19.5877H24.7579V13Z" fill="#26D9C4"/>
<path d="M8 21.8282H20.8907L13.0274 28.4159H8V21.8282Z" fill="#26D9C4"/>
<path d="M45.8023 13H32.7579V30.7446H36.3241V23.9345H44.817V20.7932H36.3241V16.1413H45.8023V13Z" fill="#111827"/>
<path d="M55.6879 18.3953C53.4358 18.3953 51.9811 19.5463 51.3712 21.6325H51.2538V18.3953H47.852V30.7446H51.2538V25.3972C51.2538 22.9034 52.7318 21.2009 55.4065 21.2009H56.9314V18.3953H55.6879Z" fill="#111827"/>
<path d="M70.0703 24.4621C69.9999 20.5535 67.8649 18.0356 64.2519 18.0356C60.5921 18.0356 58.1052 20.6254 58.1052 24.558C58.1052 28.4906 60.6155 31.1043 64.2519 31.1043C67.5131 31.1043 69.6244 29.0661 69.9999 26.3564H66.5981C66.3868 27.5074 65.4719 28.2987 64.2285 28.2987C62.6566 28.2987 61.5538 26.9559 61.507 24.8937H70.0703V24.4621ZM64.2285 20.8412C65.7299 20.8412 66.3868 22.1601 66.5981 23.5748H61.5774C61.8121 21.8963 62.8442 20.8412 64.2285 20.8412Z" fill="#111827"/>
<path d="M82.1163 21.3687H81.9755C81.3186 19.3545 79.6059 18.0356 77.5883 18.0356C74.5148 18.0356 72.3096 20.4096 72.333 24.558C72.333 28.7303 74.5148 31.1043 77.4241 31.1043C79.6295 31.1043 81.342 29.7375 81.9755 27.5793H82.1163V30.7446H85.5181V13H82.1163V21.3687ZM81.9521 24.7258C81.9285 27.0038 80.6616 28.5865 78.8785 28.5865C77.119 28.5865 75.8052 27.0518 75.7348 24.7738V24.3182C75.8052 21.9922 77.0956 20.5295 78.8785 20.5295C80.6616 20.5295 81.9051 22.0402 81.9521 24.3421V24.7258Z" fill="#111827"/>
<path d="M97.65 21.3688H97.5092C96.8523 19.3545 95.1396 18.0356 93.122 18.0356C90.0487 18.0356 87.8667 20.4096 87.8667 24.558C87.8667 28.7303 90.0487 31.1043 92.9578 31.1043C95.1632 31.1043 96.8759 29.7375 97.5092 27.5793H97.65V30.7446H101.052V18.3953H97.65V21.3688ZM97.4858 24.7258C97.4624 27.0038 96.1953 28.5865 94.4124 28.5865C92.6527 28.5865 91.3389 27.0518 91.2687 24.7738V24.3182C91.3389 21.9922 92.6293 20.5295 94.4124 20.5295C96.1953 20.5295 97.4387 22.0402 97.4858 24.3422V24.7258Z" fill="#111827"/>
<path d="M103.4 24.558C103.4 28.4906 105.911 31.1043 109.571 31.1043C112.902 31.1043 115.084 28.9702 115.366 26.0207H111.964C111.729 27.4115 110.791 28.2987 109.524 28.2987C107.928 28.2987 106.849 26.86 106.802 24.7498V24.3901C106.849 22.28 107.928 20.8412 109.524 20.8412C110.791 20.8412 111.753 21.7284 111.964 23.0953H115.366C115.084 20.1218 112.879 18.0356 109.571 18.0356C105.887 18.0356 103.4 20.6254 103.4 24.558Z" fill="#111827"/>
<path d="M123.727 31.1043C127.364 31.1043 129.804 28.5385 129.804 24.558C129.804 20.5774 127.388 18.0356 123.727 18.0356C120.068 18.0356 117.651 20.6014 117.651 24.558C117.651 28.5145 120.091 31.1043 123.727 31.1043ZM123.727 28.2987C122.156 28.2987 121.1 26.9319 121.053 24.7258V24.3661C121.1 22.184 122.132 20.8412 123.727 20.8412C125.323 20.8412 126.332 22.184 126.402 24.3661V24.7498C126.355 26.9559 125.299 28.2987 123.727 28.2987Z" fill="#111827"/>
<path d="M148.043 18.0356C146.119 18.0356 144.641 19.1147 143.773 21.4167H143.632V21.4647C143.35 19.2346 142.177 18.0356 140.136 18.0356C138.189 18.0356 136.687 19.1867 135.913 21.4167H135.796V18.3953H132.394V30.7446H135.796V23.1672C136.429 21.6085 137.321 20.6733 138.494 20.6733C139.62 20.6733 140.277 21.5126 140.277 23.0953V30.7446H143.679V23.1672C144.336 21.5846 145.204 20.6733 146.377 20.6733C147.526 20.6733 148.183 21.5126 148.183 23.0953V30.7446H151.585V22.4718C151.585 19.5943 150.365 18.0356 148.043 18.0356Z" fill="#111827"/>
</svg>
